<mxfile host="app.diagrams.net" modified="2020-09-01T14:14:19.321Z" agent="5.0 (Windows NT 10.0; Win64; x64) AppleWebKit/537.36 (KHTML, like Gecko) Chrome/81.0.4044.138 Safari/537.36" etag="LZnpMKmWIMAeyU1pKCuo" version="13.6.6" type="github">
  <diagram id="UvrZXMkWZVYzzLr8j7IN" name="Page-1">
    <mxGraphModel dx="1038" dy="584" grid="1" gridSize="10" guides="1" tooltips="1" connect="1" arrows="1" fold="1" page="1" pageScale="1" pageWidth="850" pageHeight="1100" math="0" shadow="0">
      <root>
        <mxCell id="0" />
        <mxCell id="1" parent="0" />
        <mxCell id="VP2tm0KoASyYBkhDw_QU-11" value="" style="endArrow=classic;html=1;fontColor=#6b5eae;labelBackgroundColor=#33FF99;fillColor=#e1d5e7;strokeColor=#6b5eae;" parent="1" edge="1">
          <mxGeometry width="50" height="50" relative="1" as="geometry">
            <mxPoint x="340" y="250" as="sourcePoint" />
            <mxPoint x="340" y="300" as="targetPoint" />
          </mxGeometry>
        </mxCell>
        <mxCell id="VP2tm0KoASyYBkhDw_QU-12" value="" style="endArrow=classic;html=1;fontColor=#6b5eae;strokeColor=#6b5eae;" parent="1" edge="1">
          <mxGeometry width="50" height="50" relative="1" as="geometry">
            <mxPoint x="250" y="340" as="sourcePoint" />
            <mxPoint x="300" y="340" as="targetPoint" />
            <Array as="points" />
          </mxGeometry>
        </mxCell>
        <mxCell id="VP2tm0KoASyYBkhDw_QU-14" value="" style="rhombus;whiteSpace=wrap;html=1;labelBackgroundColor=none;fontColor=#6b5eae;fillColor=#6b5eae;strokeColor=#6b5eae;" parent="1" vertex="1">
          <mxGeometry x="300" y="300" width="80" height="80" as="geometry" />
        </mxCell>
        <mxCell id="VP2tm0KoASyYBkhDw_QU-20" value="" style="endArrow=none;html=1;labelBackgroundColor=#33FF99;strokeColor=#6b5eae;fontColor=#6b5eae;" parent="1" edge="1">
          <mxGeometry width="50" height="50" relative="1" as="geometry">
            <mxPoint x="250.5" y="390" as="sourcePoint" />
            <mxPoint x="250.5" y="340" as="targetPoint" />
          </mxGeometry>
        </mxCell>
        <mxCell id="VP2tm0KoASyYBkhDw_QU-22" value="&lt;font color=&quot;#ffffff&quot; style=&quot;font-size: 10px&quot;&gt;CondiÈ›ie&lt;/font&gt;" style="text;html=1;strokeColor=none;fillColor=none;align=center;verticalAlign=middle;whiteSpace=wrap;rounded=0;labelBackgroundColor=none;fontColor=#6b5eae;" parent="1" vertex="1">
          <mxGeometry x="310" y="320" width="60" height="40" as="geometry" />
        </mxCell>
        <mxCell id="VP2tm0KoASyYBkhDw_QU-24" value="" style="endArrow=none;html=1;labelBackgroundColor=#33FF99;strokeColor=#6b5eae;fontColor=#6b5eae;" parent="1" edge="1">
          <mxGeometry width="50" height="50" relative="1" as="geometry">
            <mxPoint x="380" y="339.92" as="sourcePoint" />
            <mxPoint x="430" y="340" as="targetPoint" />
            <Array as="points">
              <mxPoint x="420" y="339.92" />
            </Array>
          </mxGeometry>
        </mxCell>
        <mxCell id="VP2tm0KoASyYBkhDw_QU-25" value="fals" style="text;html=1;strokeColor=none;fillColor=none;align=center;verticalAlign=middle;whiteSpace=wrap;rounded=0;labelBackgroundColor=none;fontColor=#6b5eae;" parent="1" vertex="1">
          <mxGeometry x="390" y="320" width="40" height="20" as="geometry" />
        </mxCell>
        <mxCell id="VP2tm0KoASyYBkhDw_QU-26" value="" style="endArrow=none;html=1;labelBackgroundColor=#33FF99;strokeColor=#6b5eae;fontColor=#6b5eae;" parent="1" edge="1">
          <mxGeometry width="50" height="50" relative="1" as="geometry">
            <mxPoint x="430" y="490" as="sourcePoint" />
            <mxPoint x="429.5" y="340" as="targetPoint" />
          </mxGeometry>
        </mxCell>
        <mxCell id="VP2tm0KoASyYBkhDw_QU-28" value="" style="endArrow=classic;html=1;fontColor=#6b5eae;strokeColor=#6b5eae;" parent="1" edge="1">
          <mxGeometry width="50" height="50" relative="1" as="geometry">
            <mxPoint x="330" y="490" as="sourcePoint" />
            <mxPoint x="330" y="530" as="targetPoint" />
            <Array as="points" />
          </mxGeometry>
        </mxCell>
        <mxCell id="VP2tm0KoASyYBkhDw_QU-29" value="" style="endArrow=none;html=1;labelBackgroundColor=#33FF99;strokeColor=#6b5eae;fontColor=#6b5eae;" parent="1" edge="1">
          <mxGeometry width="50" height="50" relative="1" as="geometry">
            <mxPoint x="330" y="490" as="sourcePoint" />
            <mxPoint x="430" y="490" as="targetPoint" />
          </mxGeometry>
        </mxCell>
        <mxCell id="VP2tm0KoASyYBkhDw_QU-30" value="Se incheie bucla" style="text;html=1;strokeColor=none;fillColor=none;align=center;verticalAlign=middle;whiteSpace=wrap;rounded=0;labelBackgroundColor=none;fontColor=#6b5eae;" parent="1" vertex="1">
          <mxGeometry x="330" y="490" width="100" height="30" as="geometry" />
        </mxCell>
        <mxCell id="VP2tm0KoASyYBkhDw_QU-31" value="" style="endArrow=classic;html=1;fontColor=#6b5eae;labelBackgroundColor=#33FF99;fillColor=#e1d5e7;strokeColor=#6b5eae;" parent="1" edge="1">
          <mxGeometry width="50" height="50" relative="1" as="geometry">
            <mxPoint x="339.8" y="380" as="sourcePoint" />
            <mxPoint x="340" y="410" as="targetPoint" />
          </mxGeometry>
        </mxCell>
        <mxCell id="VP2tm0KoASyYBkhDw_QU-32" value="" style="rounded=0;whiteSpace=wrap;html=1;labelBackgroundColor=none;strokeColor=#6b5eae;fillColor=#6b5eae;gradientColor=none;fontColor=#6b5eae;" parent="1" vertex="1">
          <mxGeometry x="280" y="410" width="120" height="40" as="geometry" />
        </mxCell>
        <mxCell id="VP2tm0KoASyYBkhDw_QU-33" value="&lt;font color=&quot;#ffffff&quot;&gt;instructiuni...&lt;/font&gt;" style="text;html=1;strokeColor=none;fillColor=none;align=center;verticalAlign=middle;whiteSpace=wrap;rounded=0;labelBackgroundColor=none;fontColor=#6b5eae;" parent="1" vertex="1">
          <mxGeometry x="291" y="420" width="100" height="20" as="geometry" />
        </mxCell>
        <mxCell id="VP2tm0KoASyYBkhDw_QU-34" value="" style="endArrow=none;html=1;labelBackgroundColor=#33FF99;strokeColor=#6b5eae;fontColor=#6b5eae;" parent="1" edge="1">
          <mxGeometry width="50" height="50" relative="1" as="geometry">
            <mxPoint x="341" y="470" as="sourcePoint" />
            <mxPoint x="340.83" y="450" as="targetPoint" />
          </mxGeometry>
        </mxCell>
        <mxCell id="VP2tm0KoASyYBkhDw_QU-35" value="" style="endArrow=none;html=1;labelBackgroundColor=#33FF99;strokeColor=#6b5eae;fontColor=#6b5eae;" parent="1" edge="1">
          <mxGeometry width="50" height="50" relative="1" as="geometry">
            <mxPoint x="250" y="470" as="sourcePoint" />
            <mxPoint x="340.5" y="470" as="targetPoint" />
          </mxGeometry>
        </mxCell>
        <mxCell id="VP2tm0KoASyYBkhDw_QU-36" value="" style="endArrow=none;html=1;labelBackgroundColor=#33FF99;strokeColor=#6b5eae;fontColor=#6b5eae;" parent="1" edge="1">
          <mxGeometry width="50" height="50" relative="1" as="geometry">
            <mxPoint x="250.5" y="440" as="sourcePoint" />
            <mxPoint x="250.5" y="390" as="targetPoint" />
          </mxGeometry>
        </mxCell>
        <mxCell id="VP2tm0KoASyYBkhDw_QU-37" value="" style="endArrow=none;html=1;labelBackgroundColor=#33FF99;strokeColor=#6b5eae;fontColor=#6b5eae;" parent="1" edge="1">
          <mxGeometry width="50" height="50" relative="1" as="geometry">
            <mxPoint x="250.5" y="470" as="sourcePoint" />
            <mxPoint x="250.5" y="440" as="targetPoint" />
          </mxGeometry>
        </mxCell>
      </root>
    </mxGraphModel>
  </diagram>
</mxfile>
